<svg width="59" height="33" viewBox="0 0 59 33" fill="none" xmlns="http://www.w3.org/2000/svg">
<g filter="url(#filter0_d_10_15)">
<path d="M19.4248 8.58974C19.3314 8.20882 19.1841 7.87461 18.9828 7.58712C18.7816 7.29244 18.53 7.04448 18.2281 6.84324C17.9335 6.63481 17.5885 6.48028 17.1932 6.37966C16.8051 6.27185 16.3774 6.21795 15.9103 6.21795C14.904 6.21795 14.0452 6.45872 13.3336 6.94027C12.6293 7.42181 12.0902 8.11539 11.7165 9.02098C11.3499 9.92657 11.1667 11.019 11.1667 12.2984C11.1667 13.5921 11.3428 14.6989 11.6949 15.6189C12.0471 16.5389 12.5718 17.2432 13.2689 17.7319C13.9661 18.2207 14.8322 18.465 15.8671 18.465C16.7799 18.465 17.5382 18.3321 18.1419 18.0661C18.7528 17.8002 19.2092 17.4229 19.5111 16.9341C19.8129 16.4454 19.9639 15.8704 19.9639 15.2092L20.9988 15.317H15.9534V11.0478H25.7424V14.1096C25.7424 16.122 25.3148 17.8433 24.4595 19.2736C23.6114 20.6967 22.4399 21.7891 20.9449 22.551C19.4572 23.3057 17.7502 23.683 15.824 23.683C13.675 23.683 11.7884 23.2266 10.164 22.3138C8.53972 21.401 7.27117 20.1001 6.35839 18.4111C5.4528 16.7221 5 14.7133 5 12.3846C5 10.5591 5.27671 8.94192 5.83013 7.53322C6.39073 6.12451 7.16696 4.93502 8.1588 3.96474C9.15064 2.98728 10.297 2.25058 11.5979 1.75466C12.8988 1.25155 14.2931 1 15.7809 1C17.089 1 18.3036 1.18687 19.4248 1.56061C20.5532 1.92716 21.5487 2.45183 22.4111 3.13462C23.2808 3.81022 23.9815 4.6116 24.5134 5.53875C25.0453 6.46591 25.3687 7.48291 25.4837 8.58974H19.4248Z" fill="white"/>
<path d="M28.5374 1.30186H35.9977L41.1294 13.8077H41.3882L46.5199 1.30186H53.9803V23.3811H48.1155V10.6166H47.943L43.0269 23.2086H39.4907L34.5747 10.5303H34.4022V23.3811H28.5374V1.30186Z" fill="white"/>
<path d="M15.7812 0.5C17.1372 0.500035 18.4058 0.693536 19.583 1.08594H19.582C20.7613 1.46935 21.8098 2.0203 22.7217 2.74219H22.7207C23.6388 3.45604 24.3826 4.30572 24.9473 5.29004C25.5152 6.2802 25.8595 7.36479 25.9814 8.53809L26.0381 9.08984H19.0322L18.9395 8.70898C18.859 8.38118 18.735 8.10518 18.5732 7.87402L18.5703 7.86914C18.4059 7.62833 18.2006 7.42506 17.9512 7.25879L17.9395 7.25195L18.2285 6.84277L17.9395 7.25098C17.701 7.08234 17.4136 6.9517 17.0703 6.86426L17.0596 6.86133C16.7213 6.76737 16.3391 6.71777 15.9102 6.71777C14.9865 6.71779 14.2296 6.93811 13.6143 7.35449L13.6133 7.35352C13.0016 7.77231 12.5206 8.38346 12.1787 9.21191C11.8434 10.042 11.667 11.0665 11.667 12.2988C11.667 13.5493 11.8375 14.5924 12.1621 15.4404C12.4843 16.282 12.9526 16.8994 13.5557 17.3223C14.152 17.7403 14.9124 17.9648 15.8672 17.9648C16.7355 17.9648 17.4196 17.8378 17.9404 17.6084L17.9424 17.6074C18.475 17.3755 18.8459 17.0605 19.0859 16.6719C19.2406 16.4214 19.35 16.1379 19.4102 15.8174H15.4531V10.5479H26.2422V14.1094C26.2422 16.1934 25.7991 18.0078 24.8887 19.5303L24.8877 19.5293C23.9907 21.0343 22.7495 22.1921 21.1719 22.9961L21.1709 22.9971C19.603 23.7923 17.8166 24.1826 15.8242 24.1826C13.6027 24.1826 11.6289 23.7109 9.91895 22.75C8.20962 21.7895 6.87522 20.4179 5.91895 18.6484L5.91797 18.6475C4.9659 16.8718 4.50002 14.7782 4.5 12.3848C4.5 10.5092 4.78475 8.82818 5.36523 7.35059V7.34863C5.94901 5.88171 6.762 4.63167 7.80762 3.6084C8.71861 2.7106 9.75527 2.00517 10.915 1.49414L11.4199 1.28711C12.7814 0.760944 14.2369 0.5 15.7812 0.5ZM36.333 0.801758L36.46 1.1123L41.2588 12.8066L46.0576 1.1123L46.1846 0.801758H54.4805V23.8809H47.6152V12.8311L43.4922 23.3906L43.3682 23.709H39.1484L39.0244 23.3896L34.9023 12.7578V23.8809H28.0371V0.801758H36.333Z" stroke="black"/>
</g>
<defs>
<filter id="filter0_d_10_15" x="0" y="0" width="58.9805" height="32.6831" filterUnits="userSpaceOnUse" color-interpolation-filters="sRGB">
<feFlood flood-opacity="0" result="BackgroundImageFix"/>
<feColorMatrix in="SourceAlpha" type="matrix" values="0 0 0 0 0 0 0 0 0 0 0 0 0 0 0 0 0 0 127 0" result="hardAlpha"/>
<feOffset dy="4"/>
<feGaussianBlur stdDeviation="2"/>
<feComposite in2="hardAlpha" operator="out"/>
<feColorMatrix type="matrix" values="0 0 0 0 0 0 0 0 0 0 0 0 0 0 0 0 0 0 0.25 0"/>
<feBlend mode="normal" in2="BackgroundImageFix" result="effect1_dropShadow_10_15"/>
<feBlend mode="normal" in="SourceGraphic" in2="effect1_dropShadow_10_15" result="shape"/>
</filter>
</defs>
</svg>
