<svg width="20" height="20" viewBox="0 0 20 20" fill="none" xmlns="http://www.w3.org/2000/svg">
<mask id="mask0_170_2229" style="mask-type:alpha" maskUnits="userSpaceOnUse" x="0" y="0" width="20" height="20">
<rect width="20" height="20" fill="currentColor"/>
</mask>
<g mask="url(#mask0_170_2229)">
<path d="M10.0832 18.3334C8.9165 18.3334 7.82275 18.1111 6.80192 17.6667C5.78109 17.2222 4.8922 16.6215 4.13525 15.8646C3.37831 15.1077 2.77762 14.2188 2.33317 13.1979C1.88873 12.1771 1.6665 11.0834 1.6665 9.91669C1.6665 7.88891 2.31234 6.10071 3.604 4.5521C4.89567 3.00349 6.5415 2.04169 8.5415 1.66669C8.2915 3.04169 8.36789 4.38544 8.77067 5.69794C9.17345 7.01044 9.86789 8.15974 10.854 9.14585C11.8401 10.132 12.9894 10.8264 14.3019 11.2292C15.6144 11.632 16.9582 11.7084 18.3332 11.4584C17.9721 13.4584 17.0137 15.1042 15.4582 16.3959C13.9026 17.6875 12.1109 18.3334 10.0832 18.3334ZM10.0832 16.6667C11.3054 16.6667 12.4373 16.3611 13.479 15.75C14.5207 15.1389 15.3401 14.2986 15.9373 13.2292C14.7429 13.1181 13.6109 12.816 12.5415 12.3229C11.4721 11.8299 10.5137 11.1597 9.6665 10.3125C8.81928 9.4653 8.14567 8.50696 7.64567 7.43752C7.14567 6.36808 6.84706 5.23613 6.74984 4.04169C5.68039 4.63891 4.84359 5.46183 4.23942 6.51044C3.63525 7.55905 3.33317 8.69447 3.33317 9.91669C3.33317 11.7917 3.98942 13.3854 5.30192 14.6979C6.61442 16.0104 8.20817 16.6667 10.0832 16.6667Z" fill="currentColor" fill-opacity="0.6"/>
</g>
</svg>
