<svg width="19" height="22" viewBox="0 0 19 22" fill="none" xmlns="http://www.w3.org/2000/svg">
<path d="M5.75 20.75V17.5079C5.75 16.9096 5.9339 16.3896 6.2304 15.9199C6.4338 15.5976 6.2945 15.1404 5.9271 15.0394C2.88394 14.2028 0.75 12.8577 0.75 8.39606C0.75 7.23611 1.13005 6.14556 1.79811 5.1964C1.96437 4.96018 2.04749 4.84208 2.06748 4.7351C2.08746 4.62813 2.05272 4.48852 1.98322 4.20932C1.70038 3.07292 1.71871 1.86619 2.14322 0.778228C2.14322 0.778228 3.02042 0.492418 5.01698 1.73969C5.47282 2.02447 5.70075 2.16686 5.9015 2.19871C6.1022 2.23056 6.3706 2.16384 6.9073 2.03041C7.6413 1.84795 8.3976 1.75 9.25 1.75C10.1024 1.75 10.8587 1.84795 11.5927 2.03041C12.1294 2.16384 12.3978 2.23056 12.5985 2.19871C12.7993 2.16686 13.0272 2.02447 13.483 1.73969C15.4796 0.492418 16.3568 0.778228 16.3568 0.778228C16.7813 1.86619 16.7996 3.07292 16.5168 4.20932C16.4473 4.48852 16.4125 4.62813 16.4325 4.7351C16.4525 4.84207 16.5356 4.96019 16.7019 5.1964C17.3699 6.14556 17.75 7.23611 17.75 8.39606C17.75 12.8577 15.6161 14.2028 12.5729 15.0394C12.2055 15.1404 12.0662 15.5976 12.2696 15.9199C12.5661 16.3896 12.75 16.9096 12.75 17.5079V20.75" stroke="currentColor" stroke-width="1.5" stroke-linecap="round" stroke-linejoin="round"/>
</svg>
