<svg width="49" height="23" viewBox="0 0 49 23" fill="currentColor" xmlns="http://www.w3.org/2000/svg">
<path d="M14.4248 7.58974C14.3314 7.20882 14.1841 6.87461 13.9828 6.58712C13.7816 6.29244 13.53 6.04448 13.2281 5.84324C12.9335 5.63481 12.5885 5.48028 12.1932 5.37966C11.8051 5.27185 11.3774 5.21795 10.9103 5.21795C9.90404 5.21795 9.04516 5.45872 8.33362 5.94027C7.62927 6.42181 7.09023 7.11539 6.71649 8.02098C6.34994 8.92657 6.16667 10.019 6.16667 11.2984C6.16667 12.5921 6.34275 13.6989 6.69493 14.6189C7.04711 15.5389 7.57178 16.2432 8.26894 16.7319C8.9661 17.2207 9.83217 17.465 10.8671 17.465C11.7799 17.465 12.5382 17.3321 13.1419 17.0661C13.7528 16.8002 14.2092 16.4229 14.5111 15.9341C14.8129 15.4454 14.9639 14.8704 14.9639 14.2092L15.9988 14.317H10.9534V10.0478H20.7424V13.1096C20.7424 15.122 20.3148 16.8433 19.4595 18.2736C18.6114 19.6967 17.4399 20.7891 15.9449 21.551C14.4572 22.3057 12.7502 22.683 10.824 22.683C8.67502 22.683 6.78836 22.2266 5.16404 21.3138C3.53972 20.401 2.27117 19.1001 1.35839 17.4111C0.452797 15.7221 0 13.7133 0 11.3846C0 9.55905 0.276709 7.94192 0.830128 6.53322C1.39073 5.12452 2.16696 3.93502 3.1588 2.96474C4.15064 1.98728 5.29701 1.25058 6.5979 0.754662C7.8988 0.251554 9.29312 0 10.7809 0C12.089 0 13.3036 0.186869 14.4248 0.560607C15.5532 0.927156 16.5487 1.45183 17.4111 2.13462C18.2808 2.81022 18.9815 3.6116 19.5134 4.53875C20.0453 5.46591 20.3687 6.48291 20.4837 7.58974H14.4248Z" fill="currentColor"/>
<path d="M23.5374 0.301865H30.9977L36.1294 12.8077H36.3882L41.5199 0.301865H48.9803V22.3811H43.1155V9.61655H42.943L38.0269 22.2086H34.4907L29.5747 9.5303H29.4022V22.3811H23.5374V0.301865Z" fill="currentColor"/>
</svg>
