<svg width="47" height="23" viewBox="0 0 47 23" fill="currentColor" xmlns="http://www.w3.org/2000/svg">
<path d="M9.84365 22.0664C7.80157 22.0664 6.04696 21.6005 4.57983 20.6687C3.1127 19.7369 1.98261 18.4482 1.18957 16.8026C0.396522 15.157 0 13.2438 0 11.063C0 8.94156 0.406435 7.04817 1.2193 5.38278C2.03217 3.71739 3.192 2.40887 4.69878 1.45722C6.22539 0.485739 8.05931 0 10.2005 0C12.084 0 13.6602 0.307304 14.929 0.921912C16.2177 1.5167 17.2487 2.37913 18.0219 3.50922C18.815 4.6393 19.3701 5.98748 19.6873 7.55374L14.3343 7.79165C14.136 6.66156 13.7197 5.78922 13.0852 5.17461C12.4508 4.54017 11.509 4.22296 10.26 4.22296C9.16957 4.22296 8.25757 4.52035 7.524 5.11513C6.79043 5.70991 6.2353 6.52278 5.85861 7.55374C5.50174 8.56487 5.3233 9.73461 5.3233 11.063C5.3233 12.3913 5.50174 13.571 5.85861 14.6019C6.21548 15.613 6.7607 16.4061 7.49426 16.981C8.24765 17.556 9.1993 17.8435 10.3492 17.8435C11.1819 17.8435 11.8957 17.6849 12.4904 17.3677C13.105 17.0504 13.5908 16.6143 13.9477 16.0591C14.3045 15.4842 14.5226 14.8299 14.6019 14.0963H10.2303V10.4979H19.7468V21.5906H16.6539L16.3863 17.1892L16.981 17.3677C16.7828 18.2995 16.3466 19.1223 15.6725 19.836C15.0183 20.5299 14.1856 21.0751 13.1744 21.4717C12.1831 21.8682 11.0729 22.0664 9.84365 22.0664Z" fill="currentColor"/>
<path d="M23.1363 21.5906V0.475825H29.9763L34.913 14.8696L39.82 0.475825H46.66V21.5906H41.4854V8.80278L36.8758 21.5311H32.8908L28.311 8.80278V21.5906H23.1363Z" fill="currentColor"/>
</svg>
